<?xml version="1.0" encoding="utf-8" standalone="no"?>
<!DOCTYPE svg PUBLIC "-//W3C//DTD SVG 1.1//EN"
  "http://www.w3.org/Graphics/SVG/1.1/DTD/svg11.dtd">
<svg xmlns:xlink="http://www.w3.org/1999/xlink" width="144pt" height="144pt" viewBox="0 0 144 144" xmlns="http://www.w3.org/2000/svg" version="1.1">
 <metadata>
  <rdf:RDF xmlns:dc="http://purl.org/dc/elements/1.1/" xmlns:cc="http://creativecommons.org/ns#" xmlns:rdf="http://www.w3.org/1999/02/22-rdf-syntax-ns#">
   <cc:Work>
    <dc:type rdf:resource="http://purl.org/dc/dcmitype/StillImage"/>
    <dc:date>2024-12-10T13:01:47.736602</dc:date>
    <dc:format>image/svg+xml</dc:format>
    <dc:creator>
     <cc:Agent>
      <dc:title>Matplotlib v3.6.3, https://matplotlib.org/</dc:title>
     </cc:Agent>
    </dc:creator>
   </cc:Work>
  </rdf:RDF>
 </metadata>
 <defs>
  <style type="text/css">*{stroke-linejoin: round; stroke-linecap: butt}</style>
 </defs>
 <g id="figure_1">
  <g id="patch_1">
   <path d="M 0 144 
L 144 144 
L 144 0 
L 0 0 
L 0 144 
z
" style="fill: none; opacity: 0"/>
  </g>
  <g id="axes_1">
   <g id="patch_2">
    <path d="M 73.8 117.072 
C 85.638666 117.072 96.994045 112.398793 105.365247 104.0816 
C 113.736448 95.764406 118.44 84.482288 118.44 72.72 
C 118.44 60.957712 113.736448 49.675594 105.365247 41.3584 
C 96.994045 33.041207 85.638666 28.368 73.8 28.368 
C 61.961334 28.368 50.605955 33.041207 42.234753 41.3584 
C 33.863552 49.675594 29.16 60.957712 29.16 72.72 
C 29.16 84.482288 33.863552 95.764406 42.234753 104.0816 
C 50.605955 112.398793 61.961334 117.072 73.8 117.072 
L 73.8 117.072 
z
" clip-path="url(#p5b5fa3b379)" style="fill: none"/>
   </g>
  </g>
 </g>
 <defs>
  <clipPath id="p5b5fa3b379">
   <rect x="18" y="17.28" width="111.6" height="110.88"/>
  </clipPath>
 </defs>
</svg>
